<svg width="1498" height="330" viewBox="0 0 1498 330" xmlns="http://www.w3.org/2000/svg"><title>map-dots</title><path d="M776.65 100.817c-.303-1.617 1.413-3.094 3.836-3.298 2.422-.204 4.634.942 4.938 2.56.306 1.617-1.412 3.094-3.835 3.297-2.423.205-4.633-.942-4.94-2.56zm319.98 117.93c1.11-1.18 4.075-1.27 6.622-.202 2.548 1.068 3.713 2.892 2.602 4.072-1.11 1.18-4.076 1.27-6.624.202-2.546-1.07-3.71-2.893-2.6-4.074zM579.663 103.07c-1.828 1.123-4.54 1.138-6.056.036-1.52-1.102-1.266-2.905.562-4.027 1.828-1.122 4.54-1.137 6.058-.036 1.516 1.102 1.264 2.906-.564 4.028zm46.918 4.656c.72-1.557 3.018-2.467 5.135-2.03 2.117.434 3.25 2.05 2.53 3.61-.72 1.558-3.02 2.467-5.136 2.03-2.115-.435-3.248-2.052-2.528-3.61zm231.144-21.38c-2.24-.94-3.092-2.722-1.905-3.984 1.188-1.26 3.963-1.522 6.202-.58 2.24.938 3.092 2.72 1.906 3.982-1.186 1.26-3.963 1.522-6.202.583zm-322.058 61.52c2.257-.62 4.748-.052 5.56 1.27.813 1.32-.36 2.893-2.618 3.513-2.258.62-4.748.052-5.56-1.27-.813-1.32.358-2.894 2.618-3.513zm820.787 58.624c-2.546-1.07-3.712-2.892-2.6-4.073 1.11-1.18 4.075-1.27 6.622-.202 2.547 1.07 3.712 2.892 2.602 4.072-1.112 1.18-4.077 1.27-6.625.202zm69.652 88.92c-3.13-.91-4.992-2.682-4.16-3.96.833-1.28 4.045-1.578 7.175-.67 3.13.91 4.992 2.683 4.16 3.962-.833 1.277-4.044 1.577-7.175.668zm1.436-147.925c-2.66-1.117-3.918-2.98-2.81-4.16 1.112-1.18 4.17-1.23 6.832-.114 2.662 1.117 3.92 2.98 2.808 4.16-1.11 1.18-4.168 1.23-6.83.114zM99.015 145.46c-2.565 1.178-5.507 1.29-6.573.254-1.065-1.035.15-2.828 2.716-4.005 2.564-1.176 5.507-1.29 6.572-.254 1.065 1.037-.15 2.83-2.715 4.005z" fill="#4A90E2" fill-rule="evenodd"/></svg>